<?xml version="1.0" encoding="UTF-8"?>
<svg id="Layer_1" xmlns="http://www.w3.org/2000/svg" version="1.1" viewBox="0 0 100 100">
  <!-- Generator: Adobe Illustrator 29.7.1, SVG Export Plug-In . SVG Version: 2.1.1 Build 8)  -->
  <defs>
    <style>
      .st0 {
        fill: #fff;
      }

      .st1 {
        fill: #ad7627;
      }
    </style>
  </defs>
  <rect class="st1" width="100" height="100" rx="10" ry="10"/>
  <g id="TPM_x5F_fullwhite">
    <path class="st0" d="M74.37,24.89c-.47-.5-1.31-.02-1.95,0-10.94,1.75-21.77,3.51-32.71,5.25-3.67-4.09-7.19-8.56-11.58-11.01-2.71-1.54-5.47-1.81-6.96-.46-1.5,1.33-1.54,4.1-.31,6.96,1.96,4.63,6.01,8.61,9.67,12.72-2.93,10.68-5.88,21.24-8.83,31.92-.09.64-.65,1.41-.21,1.94.35.13,2.55,3.44,3.2,3.09,5.88-8.34,11.15-17.13,16.9-25.57,4.83,5.01,13.04,13.44,17.66,18.57-.07,3.84-.22,7.5-.33,11.34-.14.79.26,1.08.74,1.6.43.37.64,1.03,1.23.98.52.23,3.01-6.32,4.91-10.15,1.9,1.4,3.41,1.66,4.1,1.03.71-.62.61-2.14-.57-4.19,4.01-1.47,10.8-3.22,10.63-3.76.12-.58-.51-.86-.84-1.33-.47-.53-.71-.96-1.51-.91-3.83-.32-7.49-.58-11.31-.93-4.6-5.16-12.07-14.25-16.52-19.6,9.02-4.78,18.35-9.05,27.29-13.97.42-.61-2.63-3.16-2.72-3.52h0Z"/>
  </g>
</svg>