<?xml version="1.0" encoding="UTF-8"?>
<svg id="Layer_1" xmlns="http://www.w3.org/2000/svg" version="1.1" viewBox="0 0 500 224">
  <!-- Generator: Adobe Illustrator 29.7.1, SVG Export Plug-In . SVG Version: 2.1.1 Build 8)  -->
  <defs>
    <style>
      .st0 {
        fill: #fff;
      }
    </style>
  </defs>
  <g id="TPM_x5F_fullwhite">
    <path class="st0" d="M47.97,29.01c-.42-.44-1.16-.02-1.72,0-9.66,1.54-19.21,3.1-28.86,4.63-3.24-3.61-6.34-7.55-10.21-9.72-2.39-1.36-4.82-1.59-6.14-.41-1.32,1.17-1.35,3.61-.27,6.14,1.73,4.08,5.3,7.6,8.53,11.22-2.58,9.42-5.19,18.74-7.79,28.16-.08.56-.57,1.25-.18,1.71.31.12,2.25,3.04,2.83,2.73,5.18-7.36,9.83-15.12,14.91-22.56,4.26,4.42,11.51,11.85,15.58,16.39-.07,3.39-.19,6.62-.29,10.01-.12.7.23.95.65,1.41.38.33.56.91,1.08.86.46.21,2.66-5.58,4.33-8.95,1.68,1.23,3.01,1.47,3.62.91.62-.55.54-1.89-.5-3.7,3.54-1.3,9.53-2.84,9.38-3.32.1-.51-.45-.76-.74-1.17-.41-.47-.63-.85-1.33-.8-3.38-.28-6.61-.51-9.98-.82-4.06-4.55-10.65-12.57-14.57-17.29,7.96-4.22,16.19-7.98,24.08-12.32.37-.54-2.32-2.79-2.4-3.11h0Z"/>
    <path class="st0" d="M40.14,224c-.18,0-.37-.01-.55-.03-2.39-.3-4.08-2.48-3.78-4.87.03-.27.86-6.77,2.68-17.55.4-2.38,2.66-3.98,5.02-3.57,2.37.4,3.97,2.65,3.57,5.02-1.79,10.59-2.62,17.14-2.63,17.2-.28,2.2-2.16,3.81-4.32,3.81h0ZM48.64,176.09c-.3,0-.61-.03-.91-.1-2.35-.5-3.86-2.82-3.35-5.17,1.23-5.76,2.54-11.53,3.89-17.15.56-2.34,2.91-3.78,5.25-3.22,2.34.56,3.78,2.91,3.22,5.25-1.33,5.56-2.62,11.26-3.84,16.94-.44,2.05-2.25,3.45-4.26,3.45h0ZM158.59,147.25c-.08,0-.16,0-.24,0-5.85-.32-11.91-1.27-18.01-2.82-2.33-.59-3.74-2.97-3.15-5.3.59-2.33,2.97-3.74,5.3-3.15,5.55,1.41,11.05,2.27,16.33,2.56,2.4.13,4.25,2.18,4.12,4.59-.13,2.32-2.05,4.12-4.35,4.12h0ZM188.98,142.55c-1.74,0-3.38-1.04-4.06-2.76-.88-2.24.21-4.77,2.45-5.66,5.07-2,9.8-4.68,14.05-7.96,1.91-1.48,4.65-1.12,6.11.79,1.47,1.91,1.12,4.64-.79,6.11-4.9,3.78-10.35,6.87-16.17,9.17-.53.21-1.07.31-1.6.31h0ZM112.72,133.02c-.7,0-1.41-.17-2.07-.53-5.02-2.72-10.15-5.85-15.26-9.31-1.99-1.35-2.52-4.06-1.16-6.05,1.35-1.99,4.06-2.52,6.05-1.16,4.87,3.29,9.75,6.28,14.52,8.86,2.12,1.15,2.9,3.79,1.75,5.91-.79,1.45-2.29,2.28-3.83,2.28ZM60.49,129.03c-.41,0-.82-.06-1.24-.18-2.31-.68-3.63-3.1-2.95-5.41,1.7-5.74,3.47-11.4,5.28-16.81.76-2.28,3.23-3.51,5.51-2.75,2.28.76,3.52,3.23,2.75,5.51-1.77,5.32-3.52,10.88-5.19,16.52-.56,1.9-2.3,3.12-4.18,3.12h0ZM223.08,109.89c-.61,0-1.23-.13-1.81-.4-2.19-1-3.15-3.59-2.15-5.78,2.25-4.91,3.89-10.15,4.86-15.55.43-2.37,2.68-3.95,5.06-3.52,2.37.43,3.94,2.69,3.52,5.06-1.1,6.12-2.96,12.06-5.51,17.64-.73,1.6-2.31,2.54-3.96,2.54h0ZM73.41,104.81c-1.03,0-2.06-.36-2.89-1.1-4.32-3.84-8.66-7.93-12.88-12.17-1.7-1.7-1.7-4.46,0-6.16,1.71-1.7,4.46-1.7,6.16,0,4.11,4.11,8.31,8.09,12.5,11.81,1.8,1.6,1.96,4.35.36,6.15-.86.97-2.06,1.46-3.26,1.46h0ZM76.67,83.32c-.57,0-1.15-.11-1.71-.35-2.21-.94-3.24-3.5-2.3-5.72,2.41-5.64,4.91-11.05,7.45-16.09,1.08-2.15,3.71-3.01,5.85-1.93,2.15,1.08,3.02,3.7,1.94,5.85-2.45,4.88-4.88,10.13-7.22,15.6-.71,1.66-2.32,2.65-4.01,2.65h0ZM226.99,62.58c-1.92,0-3.68-1.28-4.21-3.22-1.42-5.27-3.51-10.33-6.21-15.03-1.2-2.09-.48-4.75,1.61-5.95,2.09-1.2,4.75-.48,5.95,1.61,3.07,5.35,5.45,11.1,7.06,17.1.63,2.32-.75,4.72-3.07,5.34-.38.1-.76.15-1.14.15h0ZM100.01,40.93c-.9,0-1.8-.28-2.58-.85-1.94-1.43-2.35-4.16-.93-6.09,3.79-5.14,7.74-9.77,11.75-13.75,1.71-1.7,4.47-1.69,6.16.02,1.7,1.71,1.69,4.47-.02,6.16-3.69,3.67-7.35,7.95-10.87,12.74-.86,1.16-2.18,1.77-3.51,1.77h0ZM199.46,24c-.85,0-1.72-.25-2.47-.77-4.39-3.03-9.27-5.65-14.49-7.8-2.23-.91-3.29-3.46-2.38-5.69.92-2.23,3.47-3.29,5.69-2.38,5.8,2.38,11.23,5.3,16.13,8.69,1.98,1.37,2.48,4.08,1.11,6.06-.84,1.22-2.21,1.88-3.59,1.88h0ZM137.05,11.13c-1.84,0-3.55-1.17-4.15-3.01-.74-2.29.51-4.75,2.8-5.49,6.01-1.95,12.22-2.81,18.56-2.59,2.4.09,4.29,2.11,4.2,4.51-.09,2.4-2.1,4.25-4.51,4.2-5.31-.19-10.52.53-15.56,2.17-.45.15-.9.21-1.35.21h0Z"/>
    <path class="st0" d="M259.87,70.89h6.92v-35.6h11.74v-6.65h-30.41v6.65h11.74v35.6ZM299.51,53.45h6.83l9.27,17.44h8.34l-9.94-17.97c.87-.25,1.7-.58,2.46-1.02,1.78-1.04,3.18-2.48,4.19-4.34,1.01-1.86,1.51-4.04,1.51-6.54s-.5-4.68-1.5-6.54c-1-1.86-2.39-3.3-4.19-4.33-1.79-1.03-3.89-1.54-6.29-1.54h-17.64v42.28h6.95v-17.44h0ZM299.51,35.26h10.49c1.49,0,2.69.53,3.59,1.58s1.35,2.45,1.35,4.17c-.02,1.74-.47,3.14-1.37,4.2-.89,1.06-2.08,1.58-3.58,1.58h-10.49v-11.54h0ZM353.5,28.64l-15.87,42.25h7.47l2.79-8.02h16.29l2.79,8.02h7.47l-15.87-42.25h-5.06ZM350.19,56.21l5.83-16.8,5.83,16.8h-11.67ZM397.21,59.29l-9.56-30.66h-7.33l13.92,42.25h5.93l13.92-42.25h-7.33l-9.56,30.66h0ZM428.79,70.89h27.73v-6.65h-20.78v-11.01h17.59v-6.63h-17.59v-11.3h20.78v-6.65h-27.73v42.25h0ZM479.22,64.23V28.64h-6.95v42.25h27.73v-6.65h-20.78ZM277.43,84.8c-1.94-1.08-4.22-1.61-6.83-1.61h-16.66v42.25h6.95v-16.39h9.71c2.6,0,4.87-.53,6.82-1.6s3.46-2.57,4.55-4.5c1.09-1.94,1.63-4.2,1.63-6.8s-.54-4.89-1.63-6.83-2.6-3.44-4.53-4.52h0ZM274.88,100.67c-1.04,1.15-2.4,1.73-4.08,1.73h-9.91v-12.55h9.91c1.71,0,3.07.57,4.1,1.71,1.03,1.14,1.54,2.67,1.54,4.59s-.52,3.37-1.55,4.52ZM308.69,83.19l-15.87,42.25h7.47l2.79-8.02h16.29l2.79,8.02h7.47l-15.87-42.25h-5.06ZM305.39,110.77l5.83-16.8,5.83,16.8h-11.67ZM335.9,89.84h11.74v35.6h6.92v-35.6h11.74v-6.65h-30.41v6.65ZM404.51,101.24h-16.63v-18.05h-6.95v42.25h6.95v-17.55h16.63v17.55h6.95v-42.25h-6.95v18.05h0Z"/>
    <path class="st0" d="M391.34,161.56h7.39l-3.69-10.64-3.69,10.64ZM345.03,149.67c-1-.91-2.41-1.36-4.23-1.36h-4.38v18.33h4.38c1.82,0,3.22-.46,4.23-1.37,1-.91,1.5-2.2,1.5-3.86v-7.88c0-1.67-.5-2.96-1.5-3.86h0ZM251.35,135.89v44.97h163.39v-44.97h-163.39,0ZM285.17,170.86h-4.12v-18.73l-5.67,15.38h-3.54l-5.67-15.03v18.38h-4.12v-26.76h5.08l6.48,17.85,6.48-17.85h5.08v26.76h0ZM317.95,148.31h-13.16v7.16h11.14v4.2h-11.14v6.97h13.16v4.21h-17.56v-26.76h17.56v4.21h0ZM351.06,161.27c0,1.96-.4,3.66-1.19,5.1-.79,1.44-1.96,2.54-3.51,3.32-1.55.78-3.44,1.17-5.69,1.17h-8.65v-26.76h8.67c3.3,0,5.85.84,7.66,2.51,1.8,1.67,2.71,4.03,2.71,7.08v7.58h0ZM370.11,170.86h-4.49v-26.76h4.49v26.76ZM401.96,170.86l-1.76-5.08h-10.32l-1.76,5.08h-4.73l10.05-26.76h3.2l10.05,26.76h-4.73,0Z"/>
  </g>
</svg>